***************************************************************************

                        XxX Releasers Group

***************************************************************************

screens;
  
http://adulthub.eu/?v=ktrmompove.jpeg
 
http://adulthub.eu/?v=ktrmomtxt.jpeg
 
http://adulthub.eu/?v=ktrmomsgs.jpeg

Format                                   : MPEG-4
Format profile                           : Base Media / Version 2
Codec ID                                 : mp42
File size                                : 1.76 GiB
Duration                                 : 52mn 26s
Overall bit rate mode                    : Variable
Overall bit rate                         : 4 795 Kbps
Encoded date                             : UTC 2012-12-04 01:30:41
Tagged date                              : UTC 2012-12-04 01:30:41

Video
ID                                       : 1
Format                                   : AVC
Format/Info                              : Advanced Video Codec
Format profile                           : Main@L4.2
Format settings, CABAC                   : Yes
Format settings, ReFrames                : 3 frames
Format settings, GOP                     : M=4, N=33
Codec ID                                 : avc1
Codec ID/Info                            : Advanced Video Coding
Duration                                 : 52mn 26s
Source duration                          : 52mn 26s
Bit rate mode                            : Constant
Bit rate                                 : 4 634 Kbps
Nominal bit rate                         : 5 000 Kbps
Width                                    : 1 280 pixels
Height                                   : 720 pixels
Display aspect ratio                     : 16:9
Frame rate mode                          : Constant
Frame rate                               : 29.970 fps
Standard                                 : NTSC
Color space                              : YUV
Chroma subsampling                       : 4:2:0
Bit depth                                : 8 bits
Scan type                                : Progressive
Bits/(Pixel*Frame)                       : 0.168
Stream size                              : 1.70 GiB (97%)
Source stream size                       : 1.70 GiB (97%)
Language                                 : English
Encoded date                             : UTC 2012-12-04 01:30:41
Tagged date                              : UTC 2012-12-04 01:30:41

Audio
ID                                       : 2
Format                                   : AAC
Format/Info                              : Advanced Audio Codec
Format profile                           : LC
Codec ID                                 : 40
Duration                                 : 52mn 26s
Source duration                          : 52mn 26s
Bit rate mode                            : Variable
Bit rate                                 : 157 Kbps
Maximum bit rate                         : 268 Kbps
Channel(s)                               : 2 channels
Channel positions                        : Front: L R
Sampling rate                            : 48.0 KHz
Compression mode                         : Lossy
Stream size                              : 59.0 MiB (3%)
Source stream size                       : 59.0 MiB (3%)
Language                                 : English
Encoded date                             : UTC 2012-12-04 01:30:41
Tagged date                              : UTC 2012-12-04 01:30:41
